<?xml version="1.0" encoding="utf-8"?>
<!-- Generator: Adobe Illustrator 19.0.0, SVG Export Plug-In . SVG Version: 6.00 Build 0)  -->
<svg version="1.1" id="Layer_1" xmlns="http://www.w3.org/2000/svg" xmlns:xlink="http://www.w3.org/1999/xlink" x="0px" y="0px"
	 viewBox="0 0 96 96" style="enable-background:new 0 0 96 96;" xml:space="preserve">
<style type="text/css">
	.st0{fill:#333333;}
</style>
<g id="XMLID_2_">
	<path id="XMLID_6_" class="st0" d="M67,55.3v8.6c0,2.6-0.9,4.9-2.8,6.7c-1.9,1.9-4.1,2.8-6.7,2.8H30c-2.6,0-4.9-0.9-6.7-2.8
		c-1.9-1.9-2.8-4.1-2.8-6.7V36.4c0-2.6,0.9-4.9,2.8-6.7c1.9-1.9,4.1-2.8,6.7-2.8h8.4c0.3,0,0.5,0.1,0.7,0.3s0.3,0.5,0.3,0.7
		c0,0.6-0.3,0.9-0.9,1.1c-1.7,0.6-3.2,1.2-4.4,2c-0.2,0.1-0.4,0.1-0.5,0.1H30c-1.5,0-2.7,0.5-3.7,1.6c-1,1-1.6,2.3-1.6,3.7v27.5
		c0,1.5,0.5,2.7,1.6,3.7c1,1,2.3,1.6,3.7,1.6h27.5c1.5,0,2.7-0.5,3.7-1.6c1-1,1.6-2.3,1.6-3.7v-7.1c0-0.4,0.2-0.7,0.6-1
		c0.6-0.3,1.2-0.7,1.8-1.2c0.4-0.4,0.7-0.4,1.2-0.3C66.8,54.5,67,54.9,67,55.3z M74.9,38.9L62.2,51.6c-0.4,0.4-0.9,0.6-1.5,0.6
		c-0.3,0-0.5-0.1-0.8-0.2c-0.9-0.4-1.3-1-1.3-2v-6.3h-5.3c-7.1,0-11.9,1.4-14.5,4.3c-2.6,3-3.4,8.2-2.4,15.6
		c0.1,0.5-0.2,0.9-0.7,1.1c-0.2,0-0.3,0.1-0.4,0.1c-0.4,0-0.6-0.1-0.9-0.4c-0.2-0.3-0.5-0.7-0.7-1s-0.7-1.1-1.3-2.3
		c-0.6-1.1-1.2-2.2-1.6-3.3c-0.5-1.1-0.9-2.3-1.3-3.8c-0.4-1.5-0.6-2.8-0.6-4c0-1.1,0-2.1,0.1-3c0.1-0.9,0.2-1.9,0.5-3
		c0.2-1.1,0.5-2,0.9-2.9c0.4-0.9,0.9-1.8,1.6-2.7c0.7-0.9,1.4-1.7,2.3-2.4s1.9-1.4,3.1-2c1.2-0.6,2.6-1.2,4.1-1.6
		c1.5-0.4,3.3-0.8,5.3-1c2-0.2,4.2-0.4,6.5-0.4h5.3v-6.3c0-0.9,0.4-1.6,1.3-2c0.3-0.1,0.6-0.2,0.8-0.2c0.6,0,1.1,0.2,1.5,0.6
		l12.7,12.7c0.4,0.4,0.6,0.9,0.6,1.5S75.3,38.5,74.9,38.9z"/>
</g>
</svg>
