<?xml version="1.0"?><svg width="496" height="540" xmlns="http://www.w3.org/2000/svg">
 <title>Right Blue Bracket</title>

 <g>
  <title>Layer 1</title>
  <path transform="rotate(-2.04294, 136.914, 255.727)" fill="#0000ff" id="path3239" d="m222.905319,482.383057zm-41.142181,-28.944702c-17.702881,0.247223 -22.008972,-0.479614 -23.324707,-0.708954c-1.315765,-0.229309 -2.661407,-0.742035 -2.990356,-1.139435c-0.328918,-0.397369 -3.580719,-2.311737 -7.226227,-4.25415c-7.733551,-4.120605 -16.452789,-12.930969 -19.277649,-19.479187c-5.516602,-12.78772 -5.975342,-15.116333 -5.477814,-27.805237c0.581421,-14.827972 2.665192,-23.977539 8.0979,-35.557068c13.713226,-29.228912 9.134216,-59.783813 0.324219,-75.195648c-8.809998,-15.411835 -12.587341,-14.853607 -27.037964,-29.206268c-14.450653,-14.352676 -8.036041,-10.52623 -0.536499,-12.526291c7.499542,-2.000061 37.742218,-24.679291 43.341858,-28.200012c2.799835,-1.760361 -24.613922,-81.764343 -19.213989,-126.585106l-0.058044,-0.915421c9.662262,-21.640434 17.404083,-23.056725 31.896454,-25.570511c14.49234,-2.51379 27.074768,4.972328 28.061584,4.554253c0.986816,-0.41806 1.794189,-1.322075 1.794189,-2.008873c0,-1.532562 -11.487122,-9.482113 -12.340454,-8.540066c-0.33667,0.371742 -1.724609,0.018608 -3.084259,-0.784767c-1.359619,-0.803352 -6.143372,-1.498604 -10.630524,-1.544975c-6.453522,-0.066658 -10.270172,0.811607 -18.263733,4.202927c-5.557953,2.35799 -11.28476,5.23354 -12.726257,6.390141c-3.783478,3.035667 -9.882324,18.408089 -11.304565,28.493668c-2.255859,15.997398 3.498413,53.918518 13.328979,87.838852c3.798462,13.106628 5.268066,25.409424 3.672729,30.746246c-1.287445,4.306793 -2.67984,5.450714 -14.723511,12.0961c-7.315887,4.036713 -14.159546,7.339462 -15.20813,7.339462c-2.955322,0 -20.737732,7.860306 -23.083374,10.203476c-4.319458,4.314911 -2.236481,7.907349 9.27005,15.988144c9.108337,6.396545 10.061615,7.172882 14.162415,11.53363c2.095001,2.227814 4.611267,4.604828 5.591736,5.282288c4.444336,3.070862 12.050018,16.540894 15.587677,27.606537c2.919739,9.132813 3.800323,14.167114 3.920654,22.414581c0.147186,10.084198 -0.14447,11.356354 -5.617554,24.502441c-10.433411,25.060638 -11.842651,30.572327 -11.986389,46.880402c-0.179169,20.330841 2.642395,30.037689 12.077332,41.548218c5.051819,6.163208 8.91449,9.430298 14.389984,12.171295m8.466492,-1.138367c0.863464,-0.3815 1.895111,-0.334564 2.292603,0.104187c0.397461,0.438812 -0.309021,0.750916 -1.569916,0.693573c-1.393463,-0.063385 -1.67688,-0.376251 -0.722687,-0.797821l0,0.000061zm-6.853912,-384.993866c-2.029114,1.831444 -2.315369,2.717194 -1.196136,3.701393l1.196136,-3.701393z"/>
 </g>
</svg>