<?xml version="1.0"?><svg width="496" height="540" xmlns="http://www.w3.org/2000/svg">
 <title>Right Blue Bracket</title>

 <g>
  <title>Layer 1</title>
  <path transform="rotate(1.61509, 248.859, 258.453)" fill="#0000ff" id="path3239" d="m153.921814,485.108093zm45.422241,-28.944702c19.544495,0.247223 24.298553,-0.479614 25.75119,-0.708954c1.452637,-0.229309 2.938263,-0.742035 3.301422,-1.139435c0.363159,-0.397369 3.953247,-2.311737 7.977997,-4.25415c8.538055,-4.120605 18.164368,-12.930969 21.283112,-19.479187c6.090485,-12.78772 6.596954,-15.116333 6.047668,-27.805237c-0.641907,-14.827972 -2.942444,-23.977539 -8.940338,-35.557068c-15.139801,-29.228912 -10.084442,-59.783813 -0.357941,-75.195648c9.726501,-15.411835 13.89679,-14.853607 29.850739,-29.206268c15.953949,-14.352661 8.87204,-10.526215 0.592316,-12.526276c-8.279724,-2.000061 -41.668579,-24.679291 -47.850739,-28.200012c-3.091095,-1.760361 27.1745,-81.764343 21.21283,-126.585114l0.064087,-0.915421c-10.66745,-21.640434 -19.214661,-23.056725 -35.214661,-25.570511c-16,-2.513786 -29.891388,4.972328 -30.980835,4.554253c-1.089478,-0.41806 -1.980865,-1.322075 -1.980865,-2.008873c0,-1.532562 12.682159,-9.482109 13.624237,-8.540062c0.371704,0.371742 1.904022,0.018608 3.405121,-0.784767c1.501068,-0.803352 6.782471,-1.498604 11.73642,-1.544975c7.124878,-0.066658 11.338593,0.811607 20.163727,4.202927c6.136139,2.357986 12.45871,5.233536 14.050171,6.390137c4.177094,3.035667 10.9104,18.408089 12.480591,28.493668c2.49054,15.997398 -3.862366,53.918526 -14.715607,87.83886c-4.193604,13.106628 -5.816101,25.409424 -4.05481,30.746246c1.421387,4.306793 2.958649,5.450714 16.255219,12.0961c8.076965,4.036713 15.632568,7.339462 16.790222,7.339462c3.262787,0 22.895111,7.860306 25.484772,10.203476c4.768799,4.314911 2.469147,7.907349 -10.234436,15.988129c-10.055878,6.396545 -11.108337,7.172882 -15.635742,11.53363c-2.312927,2.227814 -5.090973,4.604828 -6.173431,5.282288c-4.906677,3.070862 -13.303589,16.540894 -17.209259,27.606537c-3.223511,9.132813 -4.195679,14.167114 -4.328552,22.414581c-0.162476,10.084198 0.159515,11.356354 6.201965,24.502441c11.518799,25.060638 13.074646,30.572327 13.233337,46.880402c0.197815,20.330841 -2.917297,30.037689 -13.33374,41.548218c-5.577362,6.163208 -9.841858,9.430298 -15.886993,12.171295m-9.34726,-1.138367c-0.953278,-0.3815 -2.092255,-0.334564 -2.531097,0.104187c-0.438812,0.438812 0.341156,0.750916 1.733246,0.693573c1.538422,-0.063385 1.851318,-0.376251 0.797852,-0.797821l0,0.000061zm7.566925,-384.993858c2.240204,1.831444 2.556244,2.717194 1.320587,3.701393l-1.320587,-3.701393z"/>
 </g>
</svg>